<svg width="117.446533" height="16.202881" viewBox="0 0 117.447 16.2029" fill="none" xmlns="http://www.w3.org/2000/svg" xmlns:xlink="http://www.w3.org/1999/xlink">
	<desc>
			Created with Pixso.
	</desc>
	<defs/>
	<path id="ANALYTICS" d="M103.72 10.65C103.67 11.74 103.37 12.71 102.83 13.56Q102.65 13.84 102.43 14.1Q101.68 14.97 100.55 15.51C99.57 15.97 98.46 16.2 97.2 16.2C95.13 16.2 93.5 15.52 92.31 14.17C91.12 12.82 90.52 10.92 90.52 8.46L90.52 7.68Q90.52 5.36 91.32 3.63Q91.91 2.37 92.87 1.52Q93.24 1.21 93.65 0.95Q93.9 0.79 94.16 0.66Q95.49 0 97.16 0C99.07 0 100.61 0.5 101.77 1.51Q102.21 1.89 102.55 2.33Q103.57 3.68 103.75 5.67L99.96 5.67C99.93 4.71 99.69 4.02 99.24 3.6C98.78 3.18 98.09 2.97 97.16 2.97C96.21 2.97 95.52 3.33 95.08 4.03C94.64 4.74 94.41 5.87 94.39 7.42L94.39 8.53C94.39 10.22 94.6 11.42 95.02 12.14C95.44 12.86 96.17 13.22 97.2 13.22C98.07 13.22 98.74 13.02 99.2 12.6C99.67 12.19 99.91 11.54 99.94 10.65L103.72 10.65ZM113.64 11.79C113.64 11.24 113.44 10.8 113.05 10.49C112.66 10.18 111.97 9.86 110.98 9.53C109.99 9.2 109.18 8.88 108.56 8.57C106.51 7.56 105.49 6.19 105.49 4.43Q105.49 3.63 105.78 2.95Q105.96 2.51 106.25 2.13Q107.02 1.12 108.42 0.57C109.35 0.19 110.39 0.01 111.55 0.01C112.69 0.01 113.7 0.21 114.6 0.61C115.5 1.02 116.2 1.59 116.7 2.34C117.19 3.09 117.44 3.94 117.44 4.9L113.65 4.9C113.65 4.26 113.46 3.76 113.06 3.4C112.67 3.05 112.14 2.87 111.47 2.87C110.79 2.87 110.25 3.03 109.85 3.33C109.46 3.62 109.27 4 109.27 4.47Q109.27 4.56 109.29 4.65Q109.37 5.15 109.92 5.57C110.35 5.89 111.11 6.23 112.2 6.59C113.29 6.93 114.19 7.31 114.89 7.71C116.59 8.69 117.44 10.05 117.44 11.77Q117.44 12.95 116.93 13.84Q116.55 14.51 115.88 15.02C114.84 15.8 113.42 16.2 111.61 16.2C110.33 16.2 109.17 15.97 108.13 15.52C107.1 15.05 106.32 14.43 105.8 13.63Q105.61 13.34 105.46 13.03L105.46 13.03Q105.02 12.05 105.02 10.87L108.83 10.87C108.83 11.72 109.04 12.34 109.48 12.75C109.92 13.14 110.63 13.34 111.61 13.34C112.24 13.34 112.73 13.21 113.09 12.94C113.46 12.67 113.64 12.28 113.64 11.79ZM10.17 13.04L4.96 13.04L4.05 15.98L0 15.98L5.77 0.22L9.35 0.22L15.17 15.98L11.09 15.98L10.17 13.04ZM29.49 15.98L25.71 15.98L20.13 6.18L20.13 15.98L16.33 15.98L16.33 0.22L20.13 0.22L25.7 10.03L25.7 0.22L29.49 0.22L29.49 15.98ZM41.04 13.04L35.83 13.04L34.92 15.98L30.86 15.98L36.64 0.22L40.22 0.22L46.04 15.98L41.96 15.98L41.04 13.04ZM51 13.06L57.61 13.06L57.61 15.98L47.2 15.98L47.2 0.22L51 0.22L51 13.06ZM61.95 7.06L64.85 0.22L68.95 0.22L63.88 10.32L63.88 15.98L60.02 15.98L60.02 10.32L54.96 0.22L59.04 0.22L61.95 7.06ZM82.67 3.16L77.94 3.16L77.94 15.98L74.14 15.98L74.14 3.16L69.49 3.16L69.49 0.22L82.67 0.22L82.67 3.16ZM88.33 15.98L84.54 15.98L84.54 0.22L88.33 0.22L88.33 15.98ZM5.87 10.1L9.26 10.1L7.56 4.64L5.87 10.1ZM36.74 10.1L40.13 10.1L38.43 4.64L36.74 10.1Z" fill="#FFFFFF" fill-opacity="1.000000" fill-rule="evenodd"/>
</svg>
