<svg width="1438.000000" height="1438.000000" viewBox="0 0 1438 1438" fill="none" xmlns="http://www.w3.org/2000/svg" xmlns:xlink="http://www.w3.org/1999/xlink">
	<desc>
			Created with Pixso.
	</desc>
	<defs/>
	<g opacity="0.070000">
		<path id="Subtract" d="M719 0C965.44 0 1182.93 123.98 1312.47 312.98L808.87 816.58L512.92 520.63C477.82 485.53 420.92 485.53 385.82 520.63L19.68 886.77C6.81 832.95 0 776.77 0 719C0 321.9 321.9 0 719 0ZM872.42 1007.24L1397.93 481.73C1423.89 556.01 1438 635.86 1438 719C1438 1116.09 1116.09 1438 719 1438C449.19 1438 214.1 1289.39 91.1 1069.56L449.37 711.29L745.32 1007.24C780.42 1042.34 837.32 1042.34 872.42 1007.24Z" fill="#8794BA" fill-opacity="1.000000" fill-rule="evenodd"/>
	</g>
</svg>
